<?xml version="1.0" encoding="utf-8"?>
<!-- Generator: Adobe Illustrator 18.0.0, SVG Export Plug-In . SVG Version: 6.00 Build 0)  -->
<!DOCTYPE svg PUBLIC "-//W3C//DTD SVG 1.1//EN" "http://www.w3.org/Graphics/SVG/1.1/DTD/svg11.dtd">
<svg version="1.1" id="Слой_2" xmlns="http://www.w3.org/2000/svg" xmlns:xlink="http://www.w3.org/1999/xlink" x="0px" y="0px"
	 viewBox="324 0 938 1200" enable-background="new 324 0 938 1200" xml:space="preserve">
<path fill="#FF0000"    d="M1254.5,291.8c-13.6-89-96.7-175.2-167.4-222.6
	S868.3-8.2,714.3,9.2s-233.2,73.6-302,139.5S332,312.1,334,386.7c2,74.5,30.1,141.3,60,201.3c29.9,60.1,138.4,189.7,165.5,221.7
	c0,0,44.5,51.3,64.8,71.6c20.3,20.3,112.2,122,118,135.5c5.8,13.6,9.7,42.6,9.7,42.6s20.1,6.2,43.4,9.6v10.7l-15.8,1v5.8v39.2v62.4
	l39.2,6.8l31.9-10.6v-58l-7.7-46.6h-22.3l0.3-8.5c2.5,0,5,0,7.4-0.2c32.9-2,48.4-19.3,48.4-19.3s2-35.8,7.8-50.4
	s46.4-62,112.2-139.3s148.1-191.7,190.7-264.3S1268,380.9,1254.5,291.8z M708.3,966c0,0-72.6-94.4-114.8-153.9
	c-42-59.6-182.8-278.8-203.2-479.1S561.8,57.2,561.8,57.2s-103.2,52.9-103.1,271.5c0,130.7,95.8,331,164,463.2
	s91.5,171.4,91.5,171.4L708.3,966z M738.8,955.8c0,0-145.1-380.4-167-489.3c-21.7-108.9-27.5-239.6-8.7-307.8
	c18.8-68.2,42.4-98.3,69.7-117.6s81.3-19.1,81.3-19.1s-46.4,51-53.8,139.7c-7.2,88.5-3,252.7,16,364.4
	c19,111.8,81.4,426.9,81.4,426.9L738.8,955.8z M801.6,1125.7c0.1-0.8,0.1-1.6,0.1-2.4c0-1.5-0.1-4.3,1-5.6c1.4,0.7,2,3.4,2.1,4.8
	c0.1,1.1,0.3,2.1,0.5,3.2L801.6,1125.7L801.6,1125.7z M815,1115.5c-0.3,1.9-0.5,3.8-0.8,5.8c-0.1,1.1-0.4,2.6-0.7,4.4H810
	c0-0.3,0-0.7,0-0.9c0-2,0.1-3.9-0.3-5.8c-1-5.1-4.6-16-11.8-13.7c0.9-3.3,4.4-10.9-2.2-10.4c-4.6,0.4-7.3,6-5.1,10.2
	c-1.7,0.8-4.6,3.2-5.5,5.1v-23.8h15.5l3,8.7h2.3c0.1,1,0.4,2,0.5,3c0.3,1.9,0.5,3.5,1.3,5.2c0.7,1.6,2.4,2.6,3.8,3.7
	c1.1,0.8,3.2,1.5,3.7,2.8C815.7,1111.5,815.3,1114,815,1115.5z M837.3,1086.6l5.8,39.2h-11.4c-0.1-1.3-0.2-2.5-0.2-3.4
	c0-2.1,0.2-3.9,0.2-6c0-3.7,0.5-8.4-1.3-11.6c-0.3-0.5-1-1.2-1.4-1.6c-0.4-0.4-1.5-0.8-1.9-1.3c-0.8-1.4,0.1-3.9-0.5-5.5
	c-1.3-3-5-5.4-7.8-2.5c-1.9,2-1.2,5.9-0.1,8c-3.1-0.3-7.2-1.9-8.1-5c-0.1-0.4-0.2-1-0.3-1.4h3.7l6.8-8.7L837.3,1086.6L837.3,1086.6z
	 M811.6,950.1h-26.1c0,0-39.2-598.1-43.6-708.5s8.7-204.7,15.7-219.5c7-14.8,59.8-8.4,67,0c7.2,8.4,29.1,97.6,33.4,221
	C862.4,366.3,811.6,950.1,811.6,950.1z M831.9,950.1c0,0,62.4-319.5,81.3-431.3s23.3-275.8,16-364.4C922,65.9,875.4,14.8,875.4,14.8
	s54.1-0.2,81.3,19.1s50.8,49.4,69.7,117.6c18.9,68.2,13.1,198.9-8.7,307.8c-21.9,108.9-166.9,492.2-166.9,492.2L831.9,950.1z
	 M1199.4,325.7c-20.3,200.4-161.2,419.7-203.3,479.1C954,864.4,891.5,958.7,891.5,958.7l-16-3c0,0,23.3-39.2,91.5-171.4
	s164-332.5,164-463.2C1131.2,102.6,1028,49.7,1028,49.7S1219.7,125.4,1199.4,325.7z"/>
</svg>
